opt_results/elbow_flexion_15
nRows=15
nColumns=15
endheader
time  TH_x  TH_y  TH_z  SC_y  SC_z  SC_x  AC_y  AC_z  AC_x  GH_y  GH_z  GH_yy  EL_x  PS_y
0.000000  0.000000  0.000000  0.000000  -21.244878  7.548297  12.757544  35.555582  -24.939708  -17.945793  24.964995  28.511398  15.257275  44.755011  83.429851
0.071429  0.000000  0.000000  0.000000  -21.244878  7.548297  12.757544  35.555582  -24.939708  -17.945793  24.964995  28.511398  15.257275  47.607008  82.683774
0.142857  0.000000  0.000000  0.000000  -21.244878  7.548297  12.757544  35.555582  -24.939708  -17.945793  24.964995  28.511398  15.257275  50.461724  82.060864
0.214286  0.000000  0.000000  0.000000  -21.244878  7.548297  12.757544  35.555582  -24.939708  -17.945793  24.964995  28.511398  15.257275  53.317170  81.437526
0.285714  0.000000  0.000000  0.000000  -21.244878  7.548297  12.757544  35.555582  -24.939708  -17.945793  24.964995  28.511398  15.257275  56.172941  80.922062
0.357143  0.000000  0.000000  0.000000  -21.244878  7.548297  12.757544  35.555582  -24.939708  -17.945793  24.964995  28.511398  15.257275  59.028890  80.589992
0.428571  0.000000  0.000000  0.000000  -21.244878  7.548297  12.757544  35.555582  -24.939708  -17.945793  24.964995  28.511398  15.257275  61.884934  80.386451
0.500000  0.000000  0.000000  0.000000  -21.244878  7.548297  12.757544  35.555582  -24.939708  -17.945793  24.964995  28.511398  15.257275  64.741015  80.243497
0.571429  0.000000  0.000000  0.000000  -21.244878  7.548297  12.757544  35.555582  -24.939708  -17.945793  24.964995  28.511398  15.257275  67.597091  80.253590
0.642857  0.000000  0.000000  0.000000  -21.244878  7.548297  12.757544  35.555582  -24.939708  -17.945793  24.964995  28.511398  15.257275  70.453120  80.230428
0.714286  0.000000  0.000000  0.000000  -21.244878  7.548297  12.757544  35.555582  -24.939708  -17.945793  24.964995  28.511398  15.257275  73.309046  80.204124
0.785714  0.000000  0.000000  0.000000  -21.244878  7.548297  12.757544  35.555582  -24.939708  -17.945793  24.964995  28.511398  15.257275  76.164777  79.895276
0.857143  0.000000  0.000000  0.000000  -21.244878  7.548297  12.757544  35.555582  -24.939708  -17.945793  24.964995  28.511398  15.257275  79.020098  79.820833
0.928571  0.000000  0.000000  0.000000  -21.244878  7.548297  12.757544  35.555582  -24.939708  -17.945793  24.964995  28.511398  15.257275  81.874352  79.561309
1.000000  0.000000  0.000000  0.000000  -21.244878  7.548297  12.757544  35.555582  -24.939708  -17.945793  24.964995  28.511398  15.257275  84.710580  79.010008
